<svg xmlns="http://www.w3.org/2000/svg" width="47" height="47" viewBox="0 0 47 47">
  <g id="bell" transform="translate(-9211 -11515)">
    <g id="user-icon" transform="translate(-54 4)">
      <circle id="Ellipse_57" data-name="Ellipse 57" cx="23.5" cy="23.5" r="23.5" transform="translate(9265 11511)" fill="#d4d4d4"/>
    </g>
    <g id="Group_2419" data-name="Group 2419" transform="translate(8847.833 11489)">
      <path id="Path_230" data-name="Path 230" d="M6041.211,11640.31s-5.316,1.52-7.1,4.706.031,5.117-.877,8.038-2.068,2.207-2.757,3.647,0,2.117,0,2.117l21.767.2a2.181,2.181,0,0,0,.5-1.725,4.384,4.384,0,0,0-1.421-1.766,11.114,11.114,0,0,1-1.922-4.156c-.6-2.539.783-3.479-.459-6s-6.936-5.059-6.936-5.059Z" transform="translate(-5655 -11598.776)" fill="#283891"/>
      <rect id="Rectangle_313" data-name="Rectangle 313" width="3" height="7" rx="1.5" transform="translate(385 38)" fill="#283891"/>
    </g>
  </g>
</svg>
